<?xml version="1.0" standalone="no"?>
<!DOCTYPE svg PUBLIC "-//W3C//DTD SVG 20010904//EN"
 "http://www.w3.org/TR/2001/REC-SVG-20010904/DTD/svg10.dtd">
<svg version="1.0" xmlns="http://www.w3.org/2000/svg"
 width="200.000000pt" height="200.000000pt" viewBox="0 0 200.000000 200.000000"
 preserveAspectRatio="xMidYMid meet">
<metadata>
Created by potrace 1.11, written by Peter Selinger 2001-2013
</metadata>
<g transform="translate(0.000000,200.000000) scale(0.100000,-0.100000)"
fill="#000000" stroke="none">
<path d="M447 1733 c-8 -10 -17 -29 -19 -43 -4 -31 -45 -41 -55 -13 -9 26 -23
33 -63 33 -59 0 -64 -9 -66 -107 -2 -113 3 -123 67 -123 42 0 51 3 60 23 11
24 39 32 51 14 3 -6 7 -198 7 -427 1 -334 -2 -420 -12 -428 -7 -6 -40 -11 -72
-11 -51 1 -62 -2 -81 -24 -14 -17 -20 -34 -17 -51 8 -42 34 -56 109 -59 l69
-2 5 -117 c5 -125 16 -152 62 -155 39 -3 65 22 72 71 9 57 38 93 84 105 59 14
802 8 830 -7 30 -17 49 -50 56 -97 10 -67 61 -94 107 -56 22 18 24 28 29 137
l5 118 33 8 c43 11 60 46 42 88 -8 19 -22 33 -39 37 -14 3 -31 9 -36 14 -7 5
-10 155 -9 431 1 233 2 426 3 430 0 4 13 8 28 10 14 2 35 14 45 29 16 21 17
30 8 54 -13 34 -26 45 -56 45 -15 0 -24 8 -29 28 -9 38 -34 62 -64 62 -36 0
-54 -14 -67 -52 -14 -42 -44 -45 -55 -5 -11 42 -28 57 -64 57 -36 0 -62 -23
-67 -60 -2 -16 -10 -26 -24 -28 -16 -2 -23 5 -33 37 -21 71 -96 71 -124 0 -18
-46 -50 -52 -55 -9 -5 37 -31 60 -67 60 -36 0 -53 -15 -64 -57 -10 -39 -42
-38 -53 2 -9 36 -33 55 -68 55 -38 0 -64 -32 -69 -82 -1 -5 -10 -8 -20 -8 -12
0 -21 10 -26 28 -9 39 -34 62 -65 62 -35 0 -59 -19 -68 -55 -11 -40 -43 -41
-53 -2 -4 16 -13 35 -20 43 -16 20 -73 18 -92 -3z m71 -640 c-3 -610 -3 -618
-23 -618 -20 0 -20 8 -23 605 -1 333 0 611 3 618 2 6 14 12 25 12 20 0 20 -2
18 -617z m183 610 c0 -5 1 -278 2 -607 2 -424 -1 -603 -9 -614 -6 -9 -18 -13
-27 -9 -15 6 -16 64 -16 614 0 334 3 611 5 615 7 10 44 10 45 1z m184 -613 c0
-608 0 -615 -20 -615 -20 0 -20 8 -23 618 l-2 618 22 -3 23 -3 0 -615z m183 3
c-3 -610 -3 -618 -23 -618 -20 0 -20 8 -23 605 -1 333 0 611 3 618 2 6 14 12
25 12 20 0 20 -2 18 -617z m183 610 c1 -5 2 -279 3 -611 1 -622 0 -644 -37
-614 -10 9 -12 136 -11 619 1 334 2 609 3 611 3 6 41 1 42 -5z m184 -613 c0
-608 0 -615 -20 -615 -20 0 -20 8 -23 605 -1 333 0 611 3 618 3 8 13 12 22 10
17 -3 18 -40 18 -618z m186 608 c0 -7 1 -283 1 -612 1 -554 0 -601 -16 -610
-12 -8 -19 -7 -26 4 -11 17 -14 1213 -3 1223 11 12 43 8 44 -5z m-1283 -101
c0 -70 -1 -73 -24 -75 -26 -2 -25 -4 -28 83 -2 62 0 65 29 65 22 0 23 -3 23
-73z m92 -2 c0 -20 -5 -25 -25 -25 -20 0 -25 5 -25 25 0 20 5 25 25 25 20 0
25 -5 25 -25z m182 0 c-3 -18 -11 -25 -28 -25 -19 0 -24 5 -24 25 0 21 5 25
29 25 25 0 28 -3 23 -25z m184 0 c0 -20 -5 -25 -26 -25 -21 0 -26 5 -26 25 0
20 5 25 26 25 21 0 26 -5 26 -25z m184 0 c0 -20 -5 -25 -25 -25 -20 0 -25 5
-25 25 0 20 5 25 25 25 20 0 25 -5 25 -25z m185 -2 c1 -19 -3 -23 -27 -23 -23
0 -28 4 -28 26 0 22 4 25 27 22 19 -2 27 -9 28 -25z m185 1 c0 -22 -4 -25 -27
-22 -19 2 -27 9 -28 26 -1 18 3 22 27 22 23 0 28 -4 28 -26z m180 1 c0 -20 -5
-25 -25 -25 -20 0 -25 5 -25 25 0 20 5 25 25 25 20 0 25 -5 25 -25z m183 11
c7 -18 -18 -40 -37 -33 -8 3 -14 15 -13 26 2 25 42 30 50 7z m-1106 -93 c6
-14 9 -622 4 -819 -1 -34 -28 -55 -42 -33 -8 14 -11 823 -3 852 3 9 12 17 19
17 8 0 18 -8 22 -17z m190 -403 c1 -228 0 -425 -3 -437 -5 -25 -35 -25 -43 0
-5 13 -6 753 -2 840 1 13 7 17 24 15 l22 -3 2 -415z m181 -14 c2 -439 1 -453
-35 -439 -11 4 -13 84 -13 432 0 235 3 431 7 435 4 4 14 5 23 4 13 -3 15 -54
18 -432z m178 422 c4 -6 7 -200 7 -430 0 -429 -2 -458 -37 -429 -12 10 -15 74
-15 424 0 227 2 420 5 430 6 19 29 23 40 5z m191 -425 c2 -419 2 -431 -17
-436 -11 -3 -23 0 -27 7 -10 14 -9 838 1 855 4 7 15 11 24 9 16 -3 17 -42 19
-435z m181 3 c2 -439 1 -453 -35 -439 -11 4 -13 84 -13 432 0 235 3 431 7 435
4 4 14 5 23 4 13 -3 15 -54 18 -432z m-1098 -508 c0 -24 -4 -28 -28 -28 -23 0
-28 4 -28 23 2 42 56 47 56 5z m183 -20 c-2 -5 -15 -8 -27 -8 -32 0 -34 47 -2
52 20 3 39 -26 29 -44z m182 22 c0 -27 -3 -30 -24 -28 -16 2 -25 10 -27 25 -3
17 2 23 24 26 15 2 27 5 27 6 1 0 1 -13 0 -29z m185 -6 c0 -19 -5 -24 -25 -24
-21 0 -25 5 -25 29 0 25 3 28 25 23 18 -3 25 -11 25 -28z m-647 12 c10 -24
-18 -39 -37 -21 -9 9 -14 21 -11 26 9 14 42 11 48 -5z m830 -5 c6 -25 0 -31
-30 -31 -18 0 -23 5 -23 25 0 20 5 25 24 25 15 0 26 -7 29 -19z m187 -5 c0
-19 -5 -24 -22 -23 -44 2 -45 47 -2 47 19 0 24 -5 24 -24z m180 -1 c0 -20 -5
-25 -25 -25 -20 0 -25 5 -25 25 0 20 5 25 25 25 20 0 25 -5 25 -25z m183 11
c7 -18 -18 -40 -37 -33 -8 3 -14 15 -13 26 2 25 42 30 50 7z m-1102 -83 c0 -5
2 -18 5 -31 3 -16 -2 -25 -19 -33 -42 -19 -73 -79 -76 -147 -1 -8 -10 -12 -23
-10 -21 3 -23 9 -26 70 l-3 67 33 3 c32 3 47 21 62 71 5 16 45 25 47 10z m187
-20 c3 -20 -1 -23 -28 -23 -25 0 -31 3 -26 16 3 9 6 20 6 26 0 21 45 3 48 -19z
m180 -1 c3 -18 -1 -22 -22 -22 -19 0 -26 5 -26 18 0 39 43 43 48 4z m188 1 c1
-19 -4 -23 -27 -23 -30 0 -34 6 -23 35 10 25 49 15 50 -12z m182 0 c3 -20 -1
-23 -28 -23 -25 0 -31 3 -26 16 3 9 6 20 6 26 0 21 45 3 48 -19z m182 5 c1
-34 24 -59 61 -67 31 -6 32 -9 32 -51 -2 -92 -1 -92 -25 -88 -18 2 -24 12 -30
46 -8 50 -41 100 -74 112 -15 6 -22 15 -19 25 3 8 7 22 10 30 7 25 45 19 45
-7z"/>
</g>
</svg>
