<?xml version="1.0" encoding="UTF-8"?>
<svg width="50px" height="50px" version="1.1" viewBox="0 0 512 512"
  xmlns="http://www.w3.org/2000/svg">
  <path transform="scale(15.059)" d="m25.206 14.5v-3.4998c0-1.1001-0.90012-2-2-2h-4.18c-0.41997-1.16-1.5201-2-2.8199-2-1.3001 0-2.4 0.83994-2.8199 2h-4.18c-1.1001 0-2 0.90012-2 2v14c0 1.1001 0.90012 2 2 2h14c1.1001 0 2-0.90012 2-2v-3.5001" fill="none" stroke="#000"/>
  <path transform="scale(15.059)" d="m16.206 9.0001c0.54993 0 0.99998 0.45006 0.99998 0.99998s-0.45006 0.99998-0.99998 0.99998c-0.54993 0-0.99998-0.45006-0.99998-0.99998s0.45006-0.99998 0.99998-0.99998z" fill="none" stroke="#000"/>
  <path d="m289.22 346.35h-150.59v-30.117h150.59zm-45.176-60.234h-105.41v-30.117h105.41zm45.176-60.234h-150.59v-30.117h150.59zm121.8 75.156h-60.234v45.176l-75.293-75.293 75.293-75.293v45.176h60.234z"/>
</svg>
