<?xml version="1.0" standalone="no"?>
<!DOCTYPE svg PUBLIC "-//W3C//DTD SVG 20010904//EN"
 "http://www.w3.org/TR/2001/REC-SVG-20010904/DTD/svg10.dtd">
<svg version="1.0" xmlns="http://www.w3.org/2000/svg"
 width="700.000000pt" height="700.000000pt" viewBox="0 0 700.000000 700.000000"
 preserveAspectRatio="xMidYMid meet">
<metadata>
Created by potrace 1.11, written by Peter Selinger 2001-2013
</metadata>
<g transform="translate(0.000000,700.000000) scale(0.100000,-0.100000)"
fill="#000000" stroke="none">
<path d="M2304 5660 c-12 -4 -31 -21 -43 -36 -19 -24 -21 -39 -21 -165 l0
-139 -402 -1 c-222 0 -414 -3 -427 -5 -71 -13 -148 -72 -193 -149 l-23 -40 -3
-1780 c-2 -1649 -1 -1783 15 -1827 22 -63 80 -128 139 -158 l49 -25 2105 0
2105 0 49 25 c59 30 115 94 138 158 16 44 17 172 18 1809 0 1648 -1 1764 -18
1808 -22 63 -80 127 -139 156 -48 24 -49 24 -470 27 l-423 3 0 141 0 141 -37
34 c-32 31 -41 35 -76 30 -25 -3 -50 -16 -66 -31 -25 -26 -26 -31 -29 -171
l-3 -145 -1050 0 -1049 0 0 141 0 141 -34 34 c-35 35 -68 42 -112 24z m-64
-656 l0 -107 36 -33 c46 -44 86 -45 134 -5 l35 29 3 111 4 111 1048 0 1048 0
4 -111 3 -111 33 -29 c35 -31 61 -35 110 -18 46 16 62 59 62 173 l0 96 394 0
c383 0 394 -1 420 -21 l26 -20 0 -330 0 -329 -2100 0 -2100 0 0 329 0 330 26
20 c26 20 37 21 420 21 l394 0 0 -106z m3360 -2113 l0 -1310 -26 -20 -27 -21
-2049 0 -2049 0 -24 25 -25 24 0 1306 0 1305 2100 0 2100 0 0 -1309z"/>
<path d="M3473 3896 c-18 -12 -72 -60 -121 -107 -49 -46 -118 -111 -154 -144
-35 -33 -124 -116 -198 -185 -73 -69 -148 -138 -166 -155 -17 -16 -82 -77
-144 -135 -62 -58 -125 -116 -139 -129 -88 -80 -161 -155 -167 -173 -11 -36 5
-86 38 -113 26 -22 39 -26 71 -22 21 3 49 15 61 26 12 12 25 21 29 21 4 0 7
-175 7 -390 0 -443 0 -444 75 -480 40 -20 62 -20 871 -20 925 0 873 -4 921 69
23 34 23 35 23 427 0 264 3 394 10 394 6 0 13 -7 16 -15 8 -20 68 -38 103 -30
41 9 72 46 78 95 l6 42 -105 102 c-57 55 -133 128 -169 161 -36 33 -119 110
-185 172 -65 61 -132 123 -149 139 -16 15 -88 82 -160 149 -71 67 -156 146
-189 176 -32 30 -76 71 -98 92 -64 62 -111 72 -165 33z m253 -403 c67 -62 131
-122 143 -132 12 -10 83 -77 159 -148 75 -72 161 -152 190 -178 l52 -47 0
-444 0 -444 -175 0 -175 0 0 290 c0 331 -4 352 -69 388 -36 20 -51 21 -318 21
-404 0 -383 23 -383 -406 l0 -293 -175 0 -175 0 0 443 0 443 107 100 c58 54
120 112 137 128 17 15 87 81 156 146 121 113 212 199 294 274 l39 35 36 -31
c20 -17 91 -82 157 -145z m-16 -1148 l0 -245 -175 0 -175 0 0 245 0 245 175 0
175 0 0 -245z"/>
</g>
</svg>
